Jump_normalized_Precision Landing13_filtered_grf
version=1
nRows=20
nColumns=37
inDegrees=yes
endheader
time		1_ground_force_vx		1_ground_force_vy		1_ground_force_vz		1_ground_force_px		1_ground_force_py		1_ground_force_pz		1_ground_torque_x		1_ground_torque_y		1_ground_torque_z		2_ground_force_vx		2_ground_force_vy		2_ground_force_vz		2_ground_force_px		2_ground_force_py		2_ground_force_pz		2_ground_torque_x		2_ground_torque_y		2_ground_torque_z		3_ground_force_vx		3_ground_force_vy		3_ground_force_vz		3_ground_force_px		3_ground_force_py		3_ground_force_pz		3_ground_torque_x		3_ground_torque_y		3_ground_torque_z		4_ground_force_vx		4_ground_force_vy		4_ground_force_vz		4_ground_force_px		4_ground_force_py		4_ground_force_pz		4_ground_torque_x		4_ground_torque_y		4_ground_torque_z		
0.410333		-0.000000		-0.000000		-0.000000		0.123594		0.000000		0.385075		-0.000000		-0.000000		0.000000		-0.000000		-0.000000		-0.000000		-0.155640		0.000000		0.290391		-0.000000		0.000000		-0.000000		-26.700373		476.491826		-91.580139		0.352256		1.254786		1.895243		1.560998		-27.857394		5.354096		-16.356602		145.304582		-29.068892		-0.289436		1.264667		1.904254		-0.986774		8.766441		-1.753782		
0.413717		0.000000		-0.000000		-0.000000		0.123594		0.000000		0.385075		-0.000000		-0.000000		0.000000		-0.000000		-0.000000		-0.000000		-0.155640		0.000000		0.290391		-0.000000		0.000000		-0.000000		-25.078947		464.032788		-94.016025		0.352252		1.254776		1.895157		1.462574		-27.061812		5.482892		-18.174151		120.321728		-21.984033		-0.289456		1.264691		1.904106		-1.051367		6.961151		-1.271927		
0.417101		0.000000		-0.000000		-0.000000		0.123594		0.000000		0.385075		-0.000000		-0.000000		0.000000		-0.000000		-0.000000		-0.000000		-0.155640		0.000000		0.290391		-0.000000		0.000000		-0.000000		-23.243446		449.221022		-95.593296		0.352255		1.254770		1.895053		1.350257		-26.096100		5.553191		-19.764414		96.125139		-13.920970		-0.289485		1.264716		1.903943		-1.068360		5.196524		-0.752649		
0.420485		0.000000		-0.000000		-0.000000		0.123594		0.000000		0.385075		-0.000000		-0.000000		0.000000		-0.000000		0.000000		-0.000000		-0.155640		0.000000		0.290391		-0.000000		0.000000		0.000000		-21.137691		431.888996		-96.356971		0.352269		1.254774		1.894929		1.221745		-24.962909		5.569370		-20.842810		73.113046		-5.757537		-0.289521		1.264747		1.903770		-1.004859		3.524989		-0.277615		
0.423869		0.000000		0.000000		0.000000		0.123594		0.000000		0.385075		0.000000		-0.000000		-0.000000		-0.000000		0.000000		0.000000		-0.155640		0.000000		0.290391		0.000000		0.000000		0.000000		-18.750440		412.003861		-96.453713		0.352296		1.254794		1.894790		1.077153		-23.668257		5.540939		-21.220811		51.899876		1.293209		-0.289558		1.264788		1.903598		-0.830618		2.032390		0.050332		
0.427253		-0.000000		0.000000		0.000000		0.123594		0.000000		0.385075		0.000000		0.000000		-0.000000		0.000000		0.000000		0.000000		-0.155640		0.000000		0.290391		0.000000		-0.000000		0.000000		-16.088009		389.692332		-96.034199		0.352335		1.254832		1.894644		0.917483		-22.223660		5.476696		-20.879881		33.322520		6.067827		-0.289595		1.264838		1.903431		-0.532867		0.851803		0.154543		
0.430636		-0.000000		0.000000		0.000000		0.123594		0.000000		0.385075		0.000000		0.000000		-0.000000		0.000000		0.000000		0.000000		-0.155640		0.000000		0.290391		0.000000		-0.000000		0.000000		-13.135583		365.151274		-95.114604		0.352376		1.254887		1.894503		0.742622		-20.643715		5.377262		-19.969489		18.292726		7.916684		-0.289624		1.264890		1.903277		-0.165584		0.152544		0.065591		
0.434020		-0.000000		0.000000		0.000000		0.123594		0.000000		0.385075		0.000000		0.000000		-0.000000		0.000000		0.000000		0.000000		-0.155640		0.000000		0.290391		0.000000		-0.000000		0.000000		-9.839828		338.576821		-93.454717		0.352400		1.254949		1.894371		0.550555		-18.943877		5.228927		-18.761223		7.461405		7.026549		-0.289649		1.264936		1.903137		0.084217		-0.033456		-0.031533		
0.437404		-0.000000		-0.000000		0.000000		0.123594		0.000000		0.385075		0.000000		0.000000		0.000000		0.000000		-0.000000		0.000000		-0.155640		0.000000		0.290391		0.000000		-0.000000		-0.000000		-6.159972		310.052339		-90.520777		0.352384		1.255003		1.894252		0.340429		-17.134512		5.002463		-17.565569		0.908086		4.352651		-0.289670		1.264972		1.903009		0.081919		-0.004308		-0.020344		
0.440788		-0.000000		-0.000000		-0.000000		0.123594		0.000000		0.385075		-0.000000		-0.000000		0.000000		-0.000000		-0.000000		-0.000000		-0.155640		0.000000		0.290391		-0.000000		-0.000000		-0.000000		-2.145338		279.486041		-85.621039		0.352290		1.255024		1.894134		1.063951		-22.223686		-18.166319		-16.632589		-2.011179		1.173545		-0.289685		1.264992		1.902890		-0.025826		-0.003173		0.001726		
0.444172		0.000000		-0.000000		-0.000000		0.123594		0.000000		0.385075		-0.000000		-0.000000		0.000000		-0.000000		-0.000000		-0.000000		-0.155640		0.000000		0.290391		-0.000000		0.000000		-0.000000		2.033445		246.645775		-78.076786		0.352117		1.255005		1.893998		1.634833		-24.404223		-31.195810		-16.084423		-2.407771		-1.486972		-0.289691		1.265000		1.902775		-0.090507		-0.013545		-0.008388		
0.447556		0.000000		-0.000000		-0.000000		0.123594		0.000000		0.385075		-0.000000		-0.000000		0.000000		-0.000000		-0.000000		-0.000000		-0.155640		0.000000		0.290391		-0.000000		0.000000		-0.000000		6.080038		211.366471		-67.568649		0.351874		1.254948		1.893830		1.525049		-20.835380		-26.857883		-15.916340		-1.497386		-3.131633		-0.289685		1.265001		1.902662		-0.092065		-0.008666		-0.018111		
0.450939		0.000000		-0.000000		-0.000000		0.123594		0.000000		0.385075		-0.000000		-0.000000		0.000000		-0.000000		-0.000000		-0.000000		-0.155640		0.000000		0.290391		-0.000000		0.000000		-0.000000		9.606319		173.918365		-54.391666		0.351590		1.254867		1.893607		-0.490054		-8.872537		2.774827		-16.048045		-0.269856		-3.764579		-0.289663		1.264997		1.902549		-0.057179		-0.000969		-0.013412		
0.454323		0.000000		0.000000		-0.000000		0.123594		0.000000		0.385075		0.000000		-0.000000		-0.000000		-0.000000		0.000000		-0.000000		-0.155640		0.000000		0.290391		-0.000000		0.000000		0.000000		12.190733		135.382544		-39.603975		0.351325		1.254793		1.893336		-0.602384		-6.690231		1.957153		-16.379290		0.683109		-3.704966		-0.289632		1.264993		1.902437		-0.013654		0.000560		-0.003093		
0.457707		0.000000		0.000000		0.000000		0.123594		0.000000		0.385075		0.000000		0.000000		-0.000000		0.000000		0.000000		0.000000		-0.155640		0.000000		0.290391		0.000000		0.000000		0.000000		13.519748		97.741731		-24.868952		0.351130		1.254750		1.893030		-0.640666		-4.632241		1.178667		-16.819358		1.165594		-3.347657		-0.289596		1.264990		1.902323		0.019703		-0.001367		0.003918		
0.461091		-0.000000		0.000000		0.000000		0.123594		0.000000		0.385075		0.000000		0.000000		-0.000000		0.000000		0.000000		0.000000		-0.155640		0.000000		0.290391		0.000000		-0.000000		0.000000		13.477971		63.569310		-12.019484		0.351056		1.254753		1.892714		-0.598672		-2.824011		0.534023		-17.287733		1.245109		-2.996848		-0.289569		1.264985		1.902206		0.034509		-0.002486		0.005982		
0.464475		-0.000000		0.000000		0.000000		0.123594		0.000000		0.385075		0.000000		0.000000		-0.000000		0.000000		0.000000		0.000000		-0.155640		0.000000		0.290391		0.000000		-0.000000		0.000000		12.201800		35.374498		-2.534247		0.351093		1.254790		1.892417		-0.471930		-1.368351		0.098080		-17.702961		1.094537		-2.800644		-0.289559		1.264977		1.902084		0.032159		-0.001989		0.005088		
0.467859		-0.000000		0.000000		0.000000		0.123594		0.000000		0.385075		0.000000		0.000000		-0.000000		0.000000		0.000000		0.000000		-0.155640		0.000000		0.290391		0.000000		-0.000000		-0.000000		10.070831		14.850222		2.941735		0.351235		1.254844		1.892166		-0.232943		-0.344931		-0.067573		-17.979621		0.872714		-2.757875		-0.289568		1.264964		1.901952		0.020226		-0.000982		0.003103		
0.471242		-0.000000		-0.000000		0.000000		0.123594		0.000000		0.385075		-0.000000		0.000000		0.000000		0.000000		-0.000000		0.000000		-0.155640		0.000000		0.290391		-0.000000		-0.000000		-0.000000		7.626881		2.263977		4.772116		0.351449		1.254896		1.891969		0.036092		0.010178		0.022703		-18.048466		0.672814		-2.773916		-0.289593		1.264946		1.901810		0.007315		-0.000273		0.001124		
0.474626		-0.000000		-0.000000		-0.000000		0.123594		0.000000		0.385075		-0.000000		-0.000000		0.000000		-0.000000		-0.000000		-0.000000		-0.155640		0.000000		0.290391		-0.000000		0.000000		-0.000000		5.405210		-3.486962		4.041094		0.351692		1.254936		1.891816		-0.043354		0.028318		-0.032399		-17.883654		0.526583		-2.732956		-0.289619		1.264927		1.901660		-0.000756		0.000023		-0.000115		
